<svg xmlns="http://www.w3.org/2000/svg" xmlns:xlink="http://www.w3.org/1999/xlink" width="250" height="250" fill="currentColor" class="bi bi-map" viewBox="0 0 25 25"><defs><linearGradient id="c"><stop offset="0" style="stop-color:#000;stop-opacity:1"/><stop offset=".229" style="stop-color:#636363;stop-opacity:1"/><stop offset=".453" style="stop-color:#777;stop-opacity:1"/><stop offset=".672" style="stop-color:#636363;stop-opacity:1"/><stop offset="1" style="stop-color:#000;stop-opacity:1"/></linearGradient><linearGradient id="b"><stop offset="0" style="stop-color:#df91c5;stop-opacity:1"/><stop offset="1" style="stop-color:#ac538b;stop-opacity:1"/></linearGradient><linearGradient id="a"><stop offset="0" style="stop-color:#df91c5;stop-opacity:1"/><stop offset="1" style="stop-color:#ac538b;stop-opacity:1"/></linearGradient><linearGradient xlink:href="#a" id="d" x1="1" x2="1" y1="1.11" y2="14.89" gradientTransform="translate(5.58 5.25)" gradientUnits="userSpaceOnUse"/><linearGradient xlink:href="#b" id="e" x1="11" x2="11" y1="1.11" y2="14.89" gradientTransform="translate(5.58 5.25)" gradientUnits="userSpaceOnUse"/><linearGradient xlink:href="#c" id="f" x1="-3.443" x2="18.778" y1="8.256" y2="8.256" gradientTransform="translate(5.63 4.372)" gradientUnits="userSpaceOnUse"/></defs><path d="M3.5 3.5c3-3 7.5-3.5 9-3.5 1 0 7.5-.5 10 2.5l-10 10m-9-9c-3 3-3.5 7.5-3.5 9 0 1-.5 7.5 2.5 10l10-10m9 9c3-3 3.5-7.5 3.5-9 0-1 .5-7.5-2.5-10l-10 10m9 9c-3 3-7.5 3.5-9 3.5-1 0-7.5.5-10-2.5l10-10" class="UnoptimicedTransforms" style="fill:#ffd4b9;stroke-width:.15;stroke-linecap:round"/><path d="M20.6 4.328a.518.518 0 0 1 .189.401v14.506a.518.518 0 0 1-.417.507l-5.18 1.037a.52.52 0 0 1-.203 0l-5.08-1.016-5.078 1.016a.518.518 0 0 1-.62-.508V5.765a.518.518 0 0 1 .417-.507l5.18-1.036a.518.518 0 0 1 .203 0l5.08 1.015 5.078-1.015a.518.518 0 0 1 .43.106z"/><path d="M10.58 19.34V6.36l-4 .8v12.98Z" style="fill:url(#d);fill-opacity:1" transform="matrix(1.0361 0 0 1.0361 -1.571 -1.228)"/><path d="m16.58 20.14 4-.8V6.36l-4 .8z" style="fill:url(#e);fill-opacity:1" transform="matrix(1.0361 0 0 1.0361 -1.571 -1.228)"/><path d="m15.58 7.16-4-.8v12.98l4 .8z" style="fill:#f7aa78;fill-opacity:1" transform="matrix(1.0361 0 0 1.0361 -1.571 -1.228)"/><path d="M5.414 11.333c-2.869 1.786-3.442 3.064-.574 3.27 2.87.205 6.94.357 10.014-.087 3.074-.444 8.05-1.052 8.671-3.72.452-1.94-1.689-2.31-1.689-2.31s2.434.451 2.57 2.434c.193 2.83-3.465 4.938-8.437 5.788-4.604.788-10.815-.06-13.153-1.792-2.338-1.732 2.598-3.583 2.598-3.583z" style="display:inline;fill:url(#f);fill-opacity:1;stroke:none;stroke-width:2;stroke-linecap:round" transform="matrix(.95069 0 0 .95069 -.144 -.097)"/></svg>