<svg xmlns="http://www.w3.org/2000/svg" xmlns:xlink="http://www.w3.org/1999/xlink" width="26.5" height="26.5" fill="currentColor" class="bi bi-map"><defs><linearGradient id="c"><stop offset="0" style="stop-color:#000;stop-opacity:1"/><stop offset=".229" style="stop-color:#636363;stop-opacity:1"/><stop offset=".453" style="stop-color:#777;stop-opacity:1"/><stop offset=".672" style="stop-color:#636363;stop-opacity:1"/><stop offset="1" style="stop-color:#000;stop-opacity:1"/></linearGradient><linearGradient id="b"><stop offset="0" style="stop-color:#df91c5;stop-opacity:1"/><stop offset="1" style="stop-color:#ac538b;stop-opacity:1"/></linearGradient><linearGradient id="a"><stop offset="0" style="stop-color:#df91c5;stop-opacity:1"/><stop offset="1" style="stop-color:#ac538b;stop-opacity:1"/></linearGradient><linearGradient xlink:href="#a" id="d" x1="1" x2="1" y1="1.11" y2="14.89" gradientTransform="translate(5.58 5.25)" gradientUnits="userSpaceOnUse"/><linearGradient xlink:href="#b" id="e" x1="11" x2="11" y1="1.11" y2="14.89" gradientTransform="translate(5.58 5.25)" gradientUnits="userSpaceOnUse"/><linearGradient xlink:href="#c" id="f" x1="-3.443" x2="18.778" y1="8.256" y2="8.256" gradientTransform="translate(5.58 4.372)" gradientUnits="userSpaceOnUse"/></defs><rect width="26.5" height="26.5" rx="6.36" ry="6.36" style="fill:#ffd4b9;fill-opacity:1;stroke:none;stroke-width:1.59;stroke-linecap:round;stroke-dasharray:none;stroke-opacity:1"/><path d="M21.77 4.654a.545.545 0 0 1 .199.422v15.258a.545.545 0 0 1-.438.534l-5.45 1.09a.547.547 0 0 1-.213 0l-5.343-1.068-5.342 1.068a.545.545 0 0 1-.652-.534V6.166a.545.545 0 0 1 .438-.534l5.45-1.09a.545.545 0 0 1 .213 0l5.343 1.068 5.342-1.068a.545.545 0 0 1 .452.112z"/><path d="M10.58 19.34V6.36l-4 .8v12.98Z" style="fill:url(#d);fill-opacity:1" transform="translate(-1.55 -1.19) scale(1.08985)"/><path d="m16.58 20.14 4-.8V6.36l-4 .8z" style="fill:url(#e);fill-opacity:1" transform="translate(-1.55 -1.19) scale(1.08985)"/><path d="m15.58 7.16-4-.8v12.98l4 .8z" style="fill:#f7aa78;fill-opacity:1" transform="translate(-1.55 -1.19) scale(1.08985)"/><path d="M5.364 11.333c-2.869 1.786-3.442 3.064-.574 3.27 2.87.205 6.94.357 10.014-.087 3.074-.444 8.05-1.052 8.671-3.72.452-1.94-1.689-2.31-1.689-2.31s2.434.451 2.57 2.434c.193 2.83-3.465 4.938-8.437 5.788-4.604.788-10.815-.06-13.153-1.792-2.338-1.732 2.598-3.583 2.598-3.583z" style="display:inline;fill:url(#f);fill-opacity:1;stroke:none;stroke-width:2;stroke-linecap:round"/></svg>